<svg width="25" height="25" viewBox="0 0 25 25" fill="none" xmlns="http://www.w3.org/2000/svg">
<g clip-path="url(#clip0_381_169)">
<path d="M18.5113 0H6.4879C2.72823 0 0 2.72903 0 6.48871V18.5113C0 22.271 2.72823 25 6.4879 25H18.5113C22.271 25 25 22.271 25 18.5113V6.48871C25 2.72903 22.271 0 18.5113 0ZM23.3871 18.5113C23.3871 21.3823 21.3823 23.3871 18.5113 23.3871H6.4879C3.61774 23.3871 1.6129 21.3823 1.6129 18.5113V6.48871C1.6129 3.61774 3.61774 1.6129 6.4879 1.6129H18.5113C21.3823 1.6129 23.3871 3.61774 23.3871 6.48871V18.5113Z" fill="white"/>
<path d="M11.8265 13.3024C11.504 12.8782 11.0419 12.5782 10.4427 12.4024C10.908 12.1718 11.2548 11.8694 11.4846 11.4952C11.7144 11.121 11.8298 10.7218 11.8298 10.2976C11.8298 9.84193 11.6999 9.40564 11.4411 8.9879C11.1822 8.57016 10.8225 8.26128 10.3653 8.06048C9.908 7.85967 9.29832 7.75806 8.54026 7.75806H4.81848V17.6807H8.60155C9.2338 17.6807 9.76687 17.6258 10.2024 17.5153C10.6378 17.404 10.9999 17.2411 11.2886 17.0242C11.5774 16.8081 11.8201 16.5 12.0161 16.1008C12.212 15.7008 12.3104 15.2694 12.3104 14.8048C12.3104 14.2266 12.1491 13.7266 11.8265 13.3024ZM6.13138 11.9274V8.92983H8.11445C8.82735 8.92983 9.33058 8.9758 9.62413 9.06774C9.91768 9.16048 10.1427 9.33145 10.3007 9.58225C10.4588 9.83387 10.5378 10.1234 10.5378 10.4524C10.5378 10.8 10.4532 11.0887 10.2838 11.3185C10.1144 11.5484 9.86284 11.7137 9.52897 11.8129C9.27655 11.8895 8.8588 11.9282 8.27735 11.9282H6.13138V11.9274ZM10.7548 15.6403C10.6233 15.8823 10.4564 16.0653 10.254 16.1927C10.0507 16.3186 9.79832 16.4089 9.4959 16.4629C9.32493 16.4944 9.02655 16.5113 8.60235 16.5113H6.13138V16.5105V13.0992H8.42574C9.058 13.0992 9.54106 13.154 9.87735 13.2653C10.2136 13.375 10.4765 13.5677 10.6661 13.8403C10.8556 14.1129 10.9507 14.4347 10.9507 14.8048C10.9507 15.121 10.8854 15.3984 10.7548 15.6403Z" fill="white"/>
<path d="M20.1823 14.076C20.1823 12.8889 19.8775 11.9687 19.2686 11.3139C18.6589 10.6574 17.8743 10.3308 16.913 10.3308C15.9202 10.3308 15.1138 10.6647 14.4904 11.3324C13.8678 12.001 13.5565 12.9389 13.5565 14.1485C13.5565 15.3171 13.8646 16.2252 14.4799 16.8735C15.0968 17.5203 15.9299 17.8437 16.9823 17.8437C17.8162 17.8437 18.5017 17.6405 19.0396 17.2348C19.5767 16.8284 19.9436 16.2574 20.142 15.5219L18.8831 15.3679C18.6985 15.8816 18.4485 16.2566 18.1307 16.4913C17.8154 16.726 17.4347 16.8429 16.988 16.8429C16.388 16.8429 15.8872 16.6332 15.4847 16.2139C15.0839 15.7937 14.8614 15.1889 14.8154 14.4002H20.1759C20.1807 14.2558 20.1823 14.1477 20.1823 14.076ZM14.8831 13.3969V13.3961C14.9226 12.7687 15.1347 12.2687 15.5146 11.8937C15.8968 11.5195 16.3678 11.3316 16.9259 11.3316C17.5444 11.3316 18.0476 11.5671 18.4356 12.0365C18.6872 12.3389 18.8412 12.7921 18.896 13.3969H14.8831Z" fill="white"/>
<path d="M18.9057 8.64526H14.8347L14.8242 9.64688H18.9129L18.9057 8.64526Z" fill="white"/>
</g>
<defs>
<clipPath id="clip0_381_169">
<rect width="25" height="25" fill="white"/>
</clipPath>
</defs>
</svg>
