<svg width="25" height="25" viewBox="0 0 25 25" fill="none" xmlns="http://www.w3.org/2000/svg">
<g clip-path="url(#clip0_498_161)">
<path d="M19.3647 24.9999C19.472 24.9999 24.3251 24.9988 24.2188 24.9988C24.6501 24.9988 25.0001 24.6488 25.0001 24.2176C24.6355 16.0332 26.9188 7.39673 18.398 7.39673C16.7595 7.39673 15.4543 7.9561 14.5136 8.69569C14.5136 7.17381 12.8688 8.01548 9.07197 7.78944C8.64072 7.78944 8.29072 8.13944 8.29072 8.57069C8.6053 23.3269 7.58863 24.9988 9.07197 24.9988H13.9261C15.3355 24.9988 14.4386 23.0113 14.7074 16.4696C14.7074 13.7676 15.4886 13.2384 16.8386 13.2384C18.3324 13.2384 18.5834 14.2759 18.5834 16.6009C18.8511 23.0249 17.9605 24.9999 19.3647 24.9999ZM16.8386 11.6759C12.1605 11.6759 13.1449 16.8196 13.1449 23.4363H9.85322V9.35194H12.9511V10.704C12.9511 11.454 14.0938 11.8228 14.4918 11.0686C15.0043 10.0957 16.3355 8.95923 18.398 8.95923C22.072 8.95923 23.4376 10.7644 23.4376 15.6217V23.4374H20.1459C20.1459 15.9957 20.9334 11.6759 16.8386 11.6759Z" fill="white"/>
<path d="M1.16879 7.79069C-0.310374 7.79069 0.702126 9.44173 0.387543 24.2188C0.387543 24.6501 0.737543 25.0001 1.16879 25.0001H6.02817C7.50734 25.0001 6.49484 23.349 6.80942 8.57194C6.80942 7.22298 4.85004 8.01882 1.16879 7.79069ZM5.24692 23.4376H1.95004V9.35319H5.24692V23.4376Z" fill="white"/>
<path d="M3.59581 0C-1.17086 0 -1.14169 7.21771 3.59581 7.21771C8.33018 7.21771 8.36768 0 3.59581 0ZM3.59581 5.65521C0.920809 5.65521 0.895809 1.5625 3.59581 1.5625C6.30102 1.5625 6.26664 5.65521 3.59581 5.65521Z" fill="white"/>
</g>
<defs>
<clipPath id="clip0_498_161">
<rect width="25" height="25" fill="white"/>
</clipPath>
</defs>
</svg>
